<svg width="24" height="24" viewBox="0 0 24 24" fill="none" xmlns="http://www.w3.org/2000/svg">
<g clip-path="url(#clip0_1_279)">
<mask id="mask0_1_279" style="mask-type:luminance" maskUnits="userSpaceOnUse" x="0" y="0" width="24" height="24">
<path d="M12 22C13.3135 22.0017 14.6143 21.7438 15.8278 21.2412C17.0413 20.7385 18.1435 20.001 19.071 19.071C20.001 18.1435 20.7385 17.0413 21.2412 15.8278C21.7438 14.6143 22.0017 13.3135 22 12C22.0017 10.6865 21.7438 9.38569 21.2411 8.17221C20.7385 6.95874 20.001 5.85655 19.071 4.929C18.1435 3.99901 17.0413 3.2615 15.8278 2.75884C14.6143 2.25619 13.3135 1.9983 12 2C10.6865 1.99833 9.38569 2.25623 8.17221 2.75888C6.95874 3.26154 5.85655 3.99904 4.929 4.929C3.99904 5.85655 3.26154 6.95874 2.75888 8.17221C2.25623 9.38569 1.99833 10.6865 2 12C1.9983 13.3135 2.25619 14.6143 2.75884 15.8278C3.2615 17.0413 3.99901 18.1435 4.929 19.071C5.85655 20.001 6.95874 20.7385 8.17221 21.2411C9.38569 21.7438 10.6865 22.0017 12 22Z" fill="white" stroke="white" stroke-width="4" stroke-linejoin="round"/>
<path d="M8 12L11 15L17 9" stroke="black" stroke-width="4" stroke-linecap="round" stroke-linejoin="round"/>
</mask>
<g mask="url(#mask0_1_279)">
<path d="M0 0H24V24H0V0Z" fill="white"/>
</g>
</g>
<defs>
<clipPath id="clip0_1_279">
<rect width="24" height="24" fill="white"/>
</clipPath>
</defs>
</svg>
