<svg width="123" height="40" viewBox="0 0 123 40" fill="none" xmlns="http://www.w3.org/2000/svg">
<g clip-path="url(#clip0_107_7)">
<path fill-rule="evenodd" clip-rule="evenodd" d="M25.5557 11.6853C23.9112 10.5865 21.9778 10 20 10V0C23.9556 0 27.8224 1.17298 31.1114 3.37061C34.4004 5.56823 36.9638 8.69181 38.4776 12.3463C39.9913 16.0008 40.3874 20.0222 39.6157 23.9018C38.844 27.7814 36.9392 31.3451 34.1421 34.1421C31.3451 36.9392 27.7814 38.844 23.9018 39.6157C20.0222 40.3874 16.0008 39.9913 12.3463 38.4776C8.69181 36.9638 5.56823 34.4004 3.37061 31.1114C1.17298 27.8224 0 23.9556 0 20H10C10 21.9778 10.5865 23.9112 11.6853 25.5557C12.7841 27.2002 14.3459 28.4819 16.1732 29.2388C18.0004 29.9957 20.0111 30.1937 21.9509 29.8078C23.8907 29.422 25.6725 28.4696 27.0711 27.0711C28.4696 25.6725 29.422 23.8907 29.8078 21.9509C30.1937 20.0111 29.9957 18.0004 29.2388 16.1732C28.4819 14.3459 27.2002 12.7841 25.5557 11.6853Z" fill="#31A0FE"/>
<path fill-rule="evenodd" clip-rule="evenodd" d="M10 4.33125e-06C10 1.31322 9.74135 2.61358 9.2388 3.82683C8.73625 5.04009 7.99965 6.14248 7.07106 7.07107C6.14249 7.99966 5.04009 8.73625 3.82683 9.2388C2.61357 9.74134 1.31322 10 4.3711e-07 10L0 20C2.62644 20 5.22715 19.4827 7.65368 18.4776C10.0802 17.4725 12.285 15.9993 14.1421 14.1421C15.9993 12.285 17.4725 10.0802 18.4776 7.65367C19.4827 5.22715 20 2.62643 20 0L10 4.33125e-06Z" fill="#31A0FE"/>
<path d="M51.0114 26V14.3636H55.6023C56.4811 14.3636 57.2311 14.5208 57.8523 14.8352C58.4773 15.1458 58.9527 15.5871 59.2784 16.1591C59.608 16.7273 59.7727 17.3958 59.7727 18.1648C59.7727 18.9375 59.6061 19.6023 59.2727 20.1591C58.9394 20.7121 58.4564 21.1364 57.8239 21.4318C57.1951 21.7273 56.4337 21.875 55.5398 21.875H52.4659V19.8977H55.142C55.6117 19.8977 56.0019 19.8333 56.3125 19.7045C56.6231 19.5758 56.8542 19.3826 57.0057 19.125C57.161 18.8674 57.2386 18.5473 57.2386 18.1648C57.2386 17.7784 57.161 17.4527 57.0057 17.1875C56.8542 16.9223 56.6212 16.7216 56.3068 16.5852C55.9962 16.4451 55.6042 16.375 55.1307 16.375H53.4716V26H51.0114ZM57.2955 20.7045L60.1875 26H57.4716L54.642 20.7045H57.2955ZM61.5659 26V17.2727H63.9864V26H61.5659ZM62.7818 16.1477C62.422 16.1477 62.1133 16.0284 61.8557 15.7898C61.6019 15.5473 61.475 15.2576 61.475 14.9205C61.475 14.5871 61.6019 14.3011 61.8557 14.0625C62.1133 13.8201 62.422 13.6989 62.7818 13.6989C63.1417 13.6989 63.4485 13.8201 63.7023 14.0625C63.9598 14.3011 64.0886 14.5871 64.0886 14.9205C64.0886 15.2576 63.9598 15.5473 63.7023 15.7898C63.4485 16.0284 63.1417 16.1477 62.7818 16.1477ZM69.2412 26.142C68.5783 26.142 67.9779 25.9716 67.4401 25.6307C66.906 25.286 66.4817 24.7803 66.1673 24.1136C65.8567 23.4432 65.7014 22.6212 65.7014 21.6477C65.7014 20.6477 65.8624 19.8163 66.1844 19.1534C66.5063 18.4867 66.9344 17.9886 67.4685 17.6591C68.0063 17.3258 68.5954 17.1591 69.2355 17.1591C69.7241 17.1591 70.1313 17.2424 70.4571 17.4091C70.7866 17.572 71.0518 17.7765 71.2526 18.0227C71.4571 18.2652 71.6124 18.5038 71.7185 18.7386H71.7923V14.3636H74.2071V26H71.8207V24.6023H71.7185C71.6048 24.8447 71.4438 25.0852 71.2355 25.3239C71.031 25.5587 70.7639 25.7538 70.4344 25.9091C70.1086 26.0644 69.7109 26.142 69.2412 26.142ZM70.0082 24.2159C70.3984 24.2159 70.7279 24.1098 70.9969 23.8977C71.2696 23.6818 71.4779 23.3807 71.6219 22.9943C71.7696 22.608 71.8435 22.1553 71.8435 21.6364C71.8435 21.1174 71.7715 20.6667 71.6276 20.2841C71.4836 19.9015 71.2753 19.6061 71.0026 19.3977C70.7298 19.1894 70.3984 19.0852 70.0082 19.0852C69.6105 19.0852 69.2753 19.1932 69.0026 19.4091C68.7298 19.625 68.5234 19.9242 68.3832 20.3068C68.2431 20.6894 68.173 21.1326 68.173 21.6364C68.173 22.1439 68.2431 22.5928 68.3832 22.983C68.5272 23.3693 68.7336 23.6723 69.0026 23.892C69.2753 24.108 69.6105 24.2159 70.0082 24.2159ZM80.2744 26.1705C79.3767 26.1705 78.604 25.9886 77.9562 25.625C77.3123 25.2576 76.8161 24.7386 76.4676 24.0682C76.1191 23.3939 75.9449 22.5966 75.9449 21.6761C75.9449 20.7784 76.1191 19.9905 76.4676 19.3125C76.8161 18.6345 77.3066 18.1061 77.9392 17.7273C78.5756 17.3485 79.3218 17.1591 80.1778 17.1591C80.7536 17.1591 81.2896 17.2519 81.7858 17.4375C82.2858 17.6193 82.7214 17.8939 83.0926 18.2614C83.4676 18.6288 83.7593 19.0909 83.9676 19.6477C84.1759 20.2008 84.2801 20.8485 84.2801 21.5909V22.2557H76.9108V20.7557H82.0017C82.0017 20.4072 81.9259 20.0985 81.7744 19.8295C81.6229 19.5606 81.4127 19.3504 81.1437 19.1989C80.8786 19.0436 80.5699 18.9659 80.2176 18.9659C79.8502 18.9659 79.5244 19.0511 79.2403 19.2216C78.96 19.3883 78.7403 19.6136 78.5812 19.8977C78.4222 20.178 78.3407 20.4905 78.3369 20.8352V22.2614C78.3369 22.6932 78.4165 23.0663 78.5756 23.3807C78.7384 23.6951 78.9676 23.9375 79.2631 24.108C79.5585 24.2784 79.9089 24.3636 80.3142 24.3636C80.5831 24.3636 80.8294 24.3258 81.0528 24.25C81.2763 24.1742 81.4676 24.0606 81.6267 23.9091C81.7858 23.7576 81.907 23.572 81.9903 23.3523L84.229 23.5C84.1153 24.0379 83.8824 24.5076 83.5301 24.9091C83.1816 25.3068 82.7309 25.6174 82.1778 25.8409C81.6286 26.0606 80.9941 26.1705 80.2744 26.1705ZM86.0051 26V14.3636H93.846V16.392H88.4653V19.1648H93.4426V21.1932H88.4653V23.9716H93.8688V26H86.0051ZM98.3452 26.1648C97.7884 26.1648 97.2921 26.0682 96.8565 25.875C96.4209 25.678 96.0762 25.3883 95.8224 25.0057C95.5724 24.6193 95.4474 24.1383 95.4474 23.5625C95.4474 23.0777 95.5365 22.6705 95.7145 22.3409C95.8925 22.0114 96.1349 21.7462 96.4418 21.5455C96.7486 21.3447 97.0971 21.1932 97.4872 21.0909C97.8812 20.9886 98.294 20.9167 98.7259 20.875C99.2334 20.822 99.6425 20.7727 99.9531 20.7273C100.264 20.678 100.489 20.6061 100.629 20.5114C100.769 20.4167 100.839 20.2765 100.839 20.0909V20.0568C100.839 19.697 100.726 19.4186 100.499 19.2216C100.275 19.0246 99.9569 18.9261 99.544 18.9261C99.1084 18.9261 98.7618 19.0227 98.5043 19.2159C98.2467 19.4053 98.0762 19.6439 97.9929 19.9318L95.7543 19.75C95.8679 19.2197 96.0914 18.7614 96.4247 18.375C96.758 17.9848 97.188 17.6856 97.7145 17.4773C98.2448 17.2652 98.8584 17.1591 99.5554 17.1591C100.04 17.1591 100.504 17.2159 100.947 17.3295C101.394 17.4432 101.79 17.6193 102.135 17.858C102.483 18.0966 102.758 18.4034 102.959 18.7784C103.16 19.1496 103.26 19.5947 103.26 20.1136V26H100.964V24.7898H100.896C100.756 25.0625 100.569 25.303 100.334 25.5114C100.099 25.7159 99.8168 25.8769 99.4872 25.9943C99.1577 26.108 98.777 26.1648 98.3452 26.1648ZM99.0384 24.4943C99.3944 24.4943 99.7088 24.4242 99.9815 24.2841C100.254 24.1402 100.468 23.947 100.624 23.7045C100.779 23.4621 100.857 23.1875 100.857 22.8807V21.9545C100.781 22.0038 100.677 22.0492 100.544 22.0909C100.415 22.1288 100.269 22.1648 100.107 22.1989C99.9437 22.2292 99.7808 22.2576 99.6179 22.2841C99.455 22.3068 99.3073 22.3277 99.1747 22.3466C98.8906 22.3883 98.6425 22.4545 98.4304 22.5455C98.2183 22.6364 98.0535 22.7595 97.9361 22.9148C97.8187 23.0663 97.7599 23.2557 97.7599 23.483C97.7599 23.8125 97.8793 24.0644 98.1179 24.2386C98.3603 24.4091 98.6671 24.4943 99.0384 24.4943ZM112.499 19.7614L110.283 19.8977C110.245 19.7083 110.164 19.5379 110.039 19.3864C109.914 19.2311 109.749 19.108 109.545 19.017C109.344 18.9223 109.103 18.875 108.823 18.875C108.448 18.875 108.132 18.9545 107.874 19.1136C107.617 19.2689 107.488 19.4773 107.488 19.7386C107.488 19.947 107.571 20.1231 107.738 20.267C107.904 20.411 108.19 20.5265 108.596 20.6136L110.175 20.9318C111.024 21.1061 111.656 21.3864 112.073 21.7727C112.49 22.1591 112.698 22.6667 112.698 23.2955C112.698 23.8674 112.529 24.3693 112.192 24.8011C111.859 25.233 111.401 25.5701 110.817 25.8125C110.238 26.0511 109.569 26.1705 108.812 26.1705C107.656 26.1705 106.736 25.9299 106.05 25.4489C105.368 24.964 104.969 24.3049 104.851 23.4716L107.232 23.3466C107.304 23.6989 107.478 23.9678 107.755 24.1534C108.031 24.3352 108.386 24.4261 108.817 24.4261C109.242 24.4261 109.582 24.3447 109.84 24.1818C110.101 24.0152 110.234 23.8011 110.238 23.5398C110.234 23.3201 110.141 23.1402 109.959 23C109.778 22.8561 109.497 22.7462 109.118 22.6705L107.607 22.3693C106.755 22.1989 106.12 21.9034 105.704 21.483C105.291 21.0625 105.084 20.5265 105.084 19.875C105.084 19.3144 105.236 18.8314 105.539 18.4261C105.846 18.0208 106.276 17.7083 106.829 17.4886C107.386 17.2689 108.037 17.1591 108.783 17.1591C109.886 17.1591 110.753 17.392 111.386 17.858C112.022 18.3239 112.393 18.9583 112.499 19.7614ZM115.816 29.2727C115.51 29.2727 115.222 29.2481 114.953 29.1989C114.688 29.1534 114.468 29.0947 114.294 29.0227L114.839 27.2159C115.123 27.303 115.379 27.3504 115.606 27.358C115.837 27.3655 116.036 27.3125 116.203 27.1989C116.373 27.0852 116.512 26.892 116.618 26.6193L116.76 26.25L113.629 17.2727H116.174L117.981 23.6818H118.072L119.896 17.2727H122.459L119.066 26.9432C118.904 27.4129 118.682 27.822 118.402 28.1705C118.125 28.5227 117.775 28.7936 117.351 28.983C116.926 29.1761 116.415 29.2727 115.816 29.2727Z" fill="#252B42"/>
</g>
<defs>
<clipPath id="clip0_107_7">
<rect width="123" height="40" fill="white"/>
</clipPath>
</defs>
</svg>
