<svg width="24" height="24" viewBox="0 0 24 24" fill="none" xmlns="http://www.w3.org/2000/svg">
<mask id="mask0_107_122" style="mask-type:luminance" maskUnits="userSpaceOnUse" x="0" y="0" width="24" height="24">
<path d="M12 22C13.3135 22.0017 14.6143 21.7438 15.8278 21.2412C17.0413 20.7385 18.1435 20.001 19.071 19.071C20.001 18.1435 20.7385 17.0413 21.2412 15.8278C21.7438 14.6143 22.0017 13.3135 22 12C22.0017 10.6865 21.7438 9.38569 21.2411 8.17221C20.7385 6.95874 20.001 5.85655 19.071 4.929C18.1435 3.99901 17.0413 3.2615 15.8278 2.75884C14.6143 2.25619 13.3135 1.9983 12 2C10.6865 1.99833 9.3857 2.25623 8.17222 2.75888C6.95875 3.26154 5.85656 3.99904 4.92901 4.929C3.99904 5.85655 3.26154 6.95874 2.75889 8.17221C2.25623 9.38569 1.99833 10.6865 2.00001 12C1.99831 13.3135 2.25619 14.6143 2.75885 15.8278C3.26151 17.0413 3.99902 18.1435 4.92901 19.071C5.85656 20.001 6.95875 20.7385 8.17222 21.2411C9.3857 21.7438 10.6865 22.0017 12 22Z" fill="white" stroke="white" stroke-width="4" stroke-linejoin="round"/>
<path d="M8 12L11 15L17 9" stroke="black" stroke-width="4" stroke-linecap="round" stroke-linejoin="round"/>
</mask>
<g mask="url(#mask0_107_122)">
<path d="M0 0H24V24H0V0Z" fill="white"/>
</g>
</svg>
