<svg aria-hidden="true" style="position: absolute; width: 0; height: 0; overflow: hidden;" version="1.1" xmlns="http://www.w3.org/2000/svg" xmlns:xlink="http://www.w3.org/1999/xlink">
<defs>
<symbol id="icon-apple" viewBox="0 0 28 32">
<path fill="#fff" style="fill: var(--color1, #fff)" d="M23.233 16.911c-0.016-2.623 1.213-4.6 3.693-6.058-1.387-1.923-3.487-2.981-6.254-3.184-2.62-0.2-5.486 1.477-6.536 1.477-1.109 0-3.646-1.408-5.641-1.408-4.119 0.062-8.496 3.177-8.496 9.515 0 1.873 0.354 3.808 1.061 5.8 0.946 2.623 4.357 9.050 7.915 8.946 1.861-0.042 3.176-1.277 5.598-1.277 2.35 0 3.566 1.277 5.641 1.277 3.59-0.050 6.675-5.892 7.574-8.523-4.814-2.196-4.556-6.431-4.556-6.565zM19.055 5.181c2.016-2.315 1.833-4.423 1.773-5.181-1.781 0.1-3.84 1.173-5.013 2.492-1.292 1.415-2.051 3.165-1.888 5.138 1.924 0.142 3.681-0.815 5.128-2.45z"></path>
</symbol>
<symbol id="icon-check" viewBox="0 0 32 32">
<path fill="#fff" style="fill: var(--color1, #fff)" d="M0 0h32v32h-32v-32z"></path>
</symbol>
<symbol id="icon-google" viewBox="0 0 29 32">
<path fill="#fff" style="fill: var(--color1, #fff)" d="M15.967 15.317l5.273-5.257-17.032-9.543c-1.129-0.608-2.186-0.693-3.114-0.028l14.873 14.828zM22.139 21.472l5.482-3.074c1.070-0.597 1.657-1.444 1.657-2.382 0-0.937-0.587-1.785-1.655-2.382l-4.963-2.779-5.587 5.568 5.066 5.049zM0.178 1.781c-0.114 0.35-0.178 0.741-0.178 1.17v26.142c0 0.677 0.15 1.26 0.421 1.724l14.439-14.396-14.682-14.64zM15.967 17.524l-14.359 14.316c0.275 0.105 0.571 0.16 0.883 0.16 0.556 0 1.136-0.164 1.726-0.491l16.504-9.239-4.754-4.747z"></path>
</symbol>
<symbol id="icon-logo" viewBox="0 0 98 32">
<path fill="#31a0fe" style="fill: var(--color1, #31a0fe)" d="M20.445 9.348c-1.316-0.879-2.862-1.348-4.445-1.348v-8c3.164 0 6.258 0.938 8.889 2.696s4.682 4.257 5.893 7.181c1.211 2.924 1.528 6.141 0.91 9.244s-2.141 5.955-4.379 8.192c-2.238 2.238-5.089 3.762-8.192 4.379s-6.321 0.3-9.244-0.91c-2.924-1.211-5.422-3.262-7.181-5.893s-2.696-5.725-2.696-8.889h8c0 1.582 0.469 3.129 1.348 4.445s2.128 2.341 3.59 2.946c1.462 0.606 3.070 0.764 4.622 0.455s2.977-1.071 4.096-2.189c1.119-1.119 1.881-2.544 2.189-4.096s0.15-3.16-0.455-4.622c-0.606-1.462-1.631-2.711-2.946-3.59z"></path>
<path fill="#31a0fe" style="fill: var(--color1, #31a0fe)" d="M8 0c0 1.051-0.207 2.091-0.609 3.061s-0.991 1.853-1.734 2.595c-0.743 0.743-1.625 1.332-2.595 1.734s-2.011 0.609-3.061 0.609v8c2.101 0 4.182-0.414 6.123-1.218s3.705-1.983 5.191-3.468c1.486-1.486 2.664-3.25 3.468-5.191s1.218-4.022 1.218-6.123h-8z"></path>
<path fill="#252b42" style="fill: var(--color2, #252b42)" d="M40.809 20.8v-9.309h3.673c0.703 0 1.303 0.126 1.8 0.377 0.5 0.248 0.88 0.602 1.141 1.059 0.264 0.455 0.395 0.989 0.395 1.605 0 0.618-0.133 1.15-0.4 1.595-0.267 0.442-0.653 0.782-1.159 1.018-0.503 0.236-1.112 0.355-1.827 0.355h-2.459v-1.582h2.141c0.376 0 0.688-0.052 0.936-0.155s0.433-0.258 0.555-0.464c0.124-0.206 0.186-0.462 0.186-0.768 0-0.309-0.062-0.57-0.186-0.782-0.121-0.212-0.308-0.373-0.559-0.482-0.248-0.112-0.562-0.168-0.941-0.168h-1.327v7.7h-1.968zM45.836 16.564l2.314 4.236h-2.173l-2.264-4.236h2.123zM49.253 20.8v-6.982h1.936v6.982h-1.936zM50.225 12.918c-0.288 0-0.535-0.095-0.741-0.286-0.203-0.194-0.305-0.426-0.305-0.695 0-0.267 0.102-0.496 0.305-0.686 0.206-0.194 0.453-0.291 0.741-0.291s0.533 0.097 0.736 0.291c0.206 0.191 0.309 0.42 0.309 0.686 0 0.27-0.103 0.501-0.309 0.695-0.203 0.191-0.448 0.286-0.736 0.286zM55.393 20.914c-0.53 0-1.011-0.136-1.441-0.409-0.427-0.276-0.767-0.68-1.018-1.214-0.248-0.536-0.373-1.194-0.373-1.973 0-0.8 0.129-1.465 0.386-1.995 0.258-0.533 0.6-0.932 1.027-1.195 0.43-0.267 0.902-0.4 1.414-0.4 0.391 0 0.717 0.067 0.977 0.2 0.264 0.13 0.476 0.294 0.636 0.491 0.164 0.194 0.288 0.385 0.373 0.573h0.059v-3.5h1.932v9.309h-1.909v-1.118h-0.082c-0.091 0.194-0.22 0.386-0.386 0.577-0.164 0.188-0.377 0.344-0.641 0.468-0.261 0.124-0.579 0.186-0.955 0.186zM56.007 19.373c0.312 0 0.576-0.085 0.791-0.255 0.218-0.173 0.385-0.414 0.5-0.723 0.118-0.309 0.177-0.671 0.177-1.086s-0.058-0.776-0.173-1.082c-0.115-0.306-0.282-0.542-0.5-0.709s-0.483-0.25-0.796-0.25c-0.318 0-0.586 0.086-0.804 0.259s-0.383 0.412-0.496 0.718c-0.112 0.306-0.168 0.661-0.168 1.064 0 0.406 0.056 0.765 0.168 1.077 0.115 0.309 0.28 0.551 0.496 0.727 0.218 0.173 0.486 0.259 0.804 0.259zM64.22 20.936c-0.718 0-1.336-0.146-1.855-0.436-0.515-0.294-0.912-0.709-1.191-1.245-0.279-0.539-0.418-1.177-0.418-1.914 0-0.718 0.139-1.348 0.418-1.891s0.671-0.965 1.177-1.268c0.509-0.303 1.106-0.455 1.791-0.455 0.461 0 0.889 0.074 1.286 0.223 0.4 0.145 0.748 0.365 1.045 0.659 0.3 0.294 0.533 0.664 0.7 1.109 0.167 0.442 0.25 0.961 0.25 1.555v0.532h-5.895v-1.2h4.073c0-0.279-0.061-0.526-0.182-0.741s-0.289-0.383-0.505-0.504c-0.212-0.124-0.459-0.186-0.741-0.186-0.294 0-0.555 0.068-0.782 0.205-0.224 0.133-0.4 0.314-0.527 0.541-0.127 0.224-0.192 0.474-0.195 0.75v1.141c0 0.345 0.064 0.644 0.191 0.895 0.13 0.252 0.314 0.445 0.55 0.582s0.517 0.204 0.841 0.204c0.215 0 0.412-0.030 0.591-0.091s0.332-0.152 0.459-0.273 0.224-0.27 0.291-0.445l1.791 0.118c-0.091 0.43-0.277 0.806-0.559 1.127-0.279 0.318-0.639 0.567-1.082 0.745-0.439 0.176-0.947 0.264-1.523 0.264zM68.804 20.8v-9.309h6.273v1.623h-4.305v2.218h3.982v1.623h-3.982v2.223h4.323v1.623h-6.291zM78.676 20.932c-0.445 0-0.842-0.077-1.191-0.232-0.348-0.158-0.624-0.389-0.827-0.695-0.2-0.309-0.3-0.694-0.3-1.155 0-0.388 0.071-0.714 0.214-0.977s0.336-0.476 0.582-0.636c0.245-0.161 0.524-0.282 0.836-0.364 0.315-0.082 0.645-0.139 0.991-0.173 0.406-0.042 0.733-0.082 0.982-0.118 0.249-0.039 0.429-0.097 0.541-0.173s0.168-0.188 0.168-0.336v-0.027c0-0.288-0.090-0.511-0.272-0.668-0.179-0.158-0.434-0.236-0.764-0.236-0.348 0-0.626 0.077-0.832 0.232-0.206 0.152-0.342 0.342-0.409 0.573l-1.791-0.145c0.091-0.424 0.27-0.791 0.536-1.1 0.267-0.312 0.611-0.552 1.032-0.718 0.424-0.17 0.915-0.255 1.473-0.255 0.388 0 0.759 0.045 1.113 0.136 0.358 0.091 0.674 0.232 0.95 0.423 0.278 0.191 0.498 0.436 0.659 0.736 0.161 0.297 0.241 0.653 0.241 1.068v4.709h-1.837v-0.968h-0.054c-0.112 0.218-0.262 0.411-0.45 0.577-0.188 0.164-0.414 0.292-0.677 0.386-0.264 0.091-0.568 0.136-0.914 0.136zM79.231 19.595c0.285 0 0.536-0.056 0.754-0.168 0.218-0.115 0.389-0.27 0.514-0.464s0.186-0.414 0.186-0.659v-0.741c-0.061 0.039-0.144 0.076-0.25 0.109-0.103 0.030-0.22 0.059-0.35 0.086-0.131 0.024-0.261 0.047-0.391 0.068-0.13 0.018-0.248 0.035-0.355 0.050-0.227 0.033-0.426 0.086-0.595 0.159s-0.302 0.171-0.395 0.295c-0.094 0.121-0.141 0.273-0.141 0.455 0 0.264 0.096 0.465 0.286 0.604 0.194 0.136 0.439 0.205 0.736 0.205zM89.999 15.809l-1.773 0.109c-0.030-0.152-0.095-0.288-0.195-0.409-0.1-0.124-0.232-0.223-0.395-0.296-0.161-0.076-0.354-0.114-0.578-0.114-0.3 0-0.553 0.064-0.759 0.191-0.206 0.124-0.309 0.291-0.309 0.5 0 0.167 0.066 0.308 0.2 0.423s0.362 0.208 0.686 0.277l1.263 0.255c0.679 0.139 1.185 0.364 1.518 0.673s0.5 0.715 0.5 1.218c0 0.458-0.135 0.859-0.405 1.204-0.266 0.346-0.633 0.615-1.1 0.809-0.463 0.191-0.998 0.286-1.604 0.286-0.925 0-1.661-0.192-2.21-0.577-0.546-0.388-0.865-0.915-0.959-1.582l1.905-0.1c0.058 0.282 0.197 0.497 0.418 0.645 0.221 0.145 0.505 0.218 0.85 0.218 0.34 0 0.612-0.065 0.818-0.195 0.209-0.133 0.315-0.305 0.318-0.514-0.003-0.176-0.078-0.32-0.223-0.432-0.145-0.115-0.37-0.203-0.673-0.264l-1.209-0.241c-0.682-0.136-1.19-0.373-1.522-0.709-0.33-0.336-0.496-0.765-0.496-1.286 0-0.448 0.122-0.835 0.364-1.159 0.246-0.324 0.59-0.574 1.032-0.75 0.446-0.176 0.966-0.264 1.563-0.264 0.882 0 1.576 0.186 2.082 0.559 0.509 0.373 0.806 0.88 0.89 1.523zM92.653 23.418c-0.245 0-0.475-0.020-0.69-0.059-0.212-0.036-0.388-0.083-0.527-0.141l0.436-1.445c0.227 0.070 0.432 0.108 0.614 0.114 0.185 0.006 0.344-0.036 0.478-0.127 0.136-0.091 0.247-0.246 0.332-0.464l0.114-0.295-2.505-7.182h2.036l1.446 5.127h0.073l1.459-5.127h2.050l-2.714 7.736c-0.13 0.376-0.307 0.703-0.531 0.982-0.222 0.282-0.502 0.498-0.841 0.65-0.34 0.154-0.749 0.232-1.228 0.232z"></path>
</symbol>
<symbol id="icon-check-circle" viewBox="0 0 24 28">
<path d="M20.062 11.469c0-0.266-0.094-0.531-0.281-0.719l-1.422-1.406c-0.187-0.187-0.438-0.297-0.703-0.297s-0.516 0.109-0.703 0.297l-6.375 6.359-3.531-3.531c-0.187-0.187-0.438-0.297-0.703-0.297s-0.516 0.109-0.703 0.297l-1.422 1.406c-0.187 0.187-0.281 0.453-0.281 0.719s0.094 0.516 0.281 0.703l5.656 5.656c0.187 0.187 0.453 0.297 0.703 0.297 0.266 0 0.531-0.109 0.719-0.297l8.484-8.484c0.187-0.187 0.281-0.438 0.281-0.703zM24 14c0 6.625-5.375 12-12 12s-12-5.375-12-12 5.375-12 12-12 12 5.375 12 12z"></path>
</symbol>



</defs>
</svg>
